<?xml version="1.0" encoding="UTF-8"?>
<svg width="30px" height="41px" viewBox="0 0 30 41" version="1.1" xmlns="http://www.w3.org/2000/svg" xmlns:xlink="http://www.w3.org/1999/xlink">
    <!-- Generator: Sketch 43.2 (39069) - http://www.bohemiancoding.com/sketch -->
    <title>icon-pin</title>
    <desc>Created with Sketch.</desc>
    <defs></defs>
    <g id="Symbols" stroke="none" stroke-width="1" fill="none" fill-rule="evenodd">
        <g id="iPhone6/Tab-bar/Grey" transform="translate(-651.000000, -12.000000)" fill="#000000">
            <g id="Tab-bar">
                <g id="icon-pin" transform="translate(651.000000, 12.000000)">
                    <g id="noun_1226998_cc">
                        <path d="M24.4791056,3.48472329 C21.9838716,1.24761698 18.456127,0 14.6272335,0 C10.7983401,0 7.2705955,1.24761698 4.77536154,3.48472329 C1.72085101,6.19506362 0.129063825,10.325106 0.129063825,15.4016165 C0.129063825,26.4580842 12.82034,39.3644667 13.3796166,39.9237433 C13.7237868,40.2679135 14.1539995,40.4399986 14.6272335,40.4399986 C15.1004676,40.4399986 15.5306803,40.2679135 15.8748505,39.9237433 C16.4341271,39.3644667 29.1254033,26.4580842 29.1254033,15.4016165 C29.1254033,10.325106 27.5336161,6.19506362 24.4791056,3.48472329 Z M14.6272335,23.9628503 C9.59374436,23.9628503 5.50672322,19.8328078 5.50672322,14.7132761 C5.50672322,9.59374436 9.59374436,5.46370194 14.6272335,5.46370194 C19.6607227,5.46370194 23.7477439,9.59374436 23.7477439,14.7132761 C23.7477439,19.7897866 19.6607227,23.9628503 14.6272335,23.9628503 Z" id="Shape" fill-rule="nonzero"></path>
                    </g>
                </g>
            </g>
        </g>
    </g>
</svg>