<?xml version="1.0" encoding="UTF-8"?>
<svg width="34px" height="34px" viewBox="0 0 34 34" version="1.1" xmlns="http://www.w3.org/2000/svg" xmlns:xlink="http://www.w3.org/1999/xlink">
    <!-- Generator: Sketch 43.2 (39069) - http://www.bohemiancoding.com/sketch -->
    <title>icon-list</title>
    <desc>Created with Sketch.</desc>
    <defs></defs>
    <g id="Symbols" stroke="none" stroke-width="1" fill="none" fill-rule="evenodd">
        <g id="iPhone6/Tab-bar/Grey" transform="translate(-357.000000, -17.000000)" fill="#000000">
            <g id="Tab-bar">
                <g id="icon-list" transform="translate(357.000000, 17.000000)">
                    <g id="noun_806725_cc">
                        <g id="Group" fill-rule="nonzero">
                            <path d="M4.38738776,31.4361224 C4.38738776,32.6469388 3.40485714,33.6287755 2.19404082,33.6287755 L2.19404082,33.6287755 C0.982530612,33.6287755 0.000693877551,32.6469388 0.000693877551,31.4361224 L0.000693877551,31.4361224 L0.000693877551,2.19334694 C0.000693877551,0.982530612 0.982530612,0 2.19404082,0 L2.19404082,0 C3.40485714,0 4.38738776,0.982530612 4.38738776,2.19334694 L4.38738776,2.19334694 L4.38738776,31.4361224 L4.38738776,31.4361224 Z" id="Shape"></path>
                            <path d="M33.6294694,31.4347347 C33.6294694,32.6469388 32.6469388,33.6287755 31.4354286,33.6287755 L31.4354286,33.6287755 C30.2239184,33.6287755 29.2427755,32.6469388 29.2427755,31.4347347 L29.2427755,31.4347347 L29.2427755,2.19404082 C29.2427755,0.982530612 30.2239184,0 31.4354286,0 L31.4354286,0 C32.6469388,0 33.6294694,0.982530612 33.6294694,2.19404082 L33.6294694,2.19404082 L33.6294694,31.4347347 L33.6294694,31.4347347 Z" id="Shape"></path>
                        </g>
                        <g id="Group" fill-rule="nonzero">
                            <path d="M31.4368163,29.2420816 C32.6483265,29.2420816 33.6301633,30.2246122 33.6301633,31.4354286 L33.6301633,31.4354286 C33.6301633,32.6469388 32.6483265,33.6287755 31.4368163,33.6287755 L31.4368163,33.6287755 L2.19334694,33.6287755 C0.982530612,33.6287755 0,32.6469388 0,31.4354286 L0,31.4354286 C0,30.2246122 0.982530612,29.2420816 2.19334694,29.2420816 L2.19334694,29.2420816 L31.4368163,29.2420816 L31.4368163,29.2420816 Z" id="Shape"></path>
                            <path d="M31.4361224,9.74759184 C32.6483265,9.74759184 33.6294694,10.7294286 33.6294694,11.9409388 L33.6294694,11.9409388 C33.6294694,13.1517551 32.6483265,14.1342857 31.4361224,14.1342857 L31.4361224,14.1342857 L2.19334694,14.1342857 C0.982530612,14.1342857 0.000693877551,13.1517551 0.000693877551,11.9409388 L0.000693877551,11.9409388 C0.000693877551,10.7294286 0.982530612,9.74759184 2.19334694,9.74759184 L2.19334694,9.74759184 L31.4361224,9.74759184 L31.4361224,9.74759184 Z" id="Shape"></path>
                            <path d="M31.4361224,19.4944898 C32.6483265,19.4944898 33.6294694,20.4763265 33.6294694,21.6878367 L33.6294694,21.6878367 C33.6294694,22.8986531 32.6483265,23.8811837 31.4361224,23.8811837 L31.4361224,23.8811837 L2.19334694,23.8818776 C0.982530612,23.8818776 0.000693877551,22.8993469 0.000693877551,21.6878367 L0.000693877551,21.6878367 C0.000693877551,20.4763265 0.982530612,19.4951837 2.19334694,19.4951837 L2.19334694,19.4951837 L31.4361224,19.4944898 L31.4361224,19.4944898 Z" id="Shape"></path>
                            <path d="M31.4361224,0 C32.6483265,0 33.6301633,0.982530612 33.6301633,2.19404082 L33.6301633,2.19404082 C33.6301633,3.40555102 32.6483265,4.38669388 31.4361224,4.38669388 L31.4361224,4.38669388 L2.19404082,4.38669388 C0.982530612,4.38669388 0,3.40555102 0,2.19404082 L0,2.19404082 C0,0.982530612 0.982530612,0 2.19404082,0 L2.19404082,0 L31.4361224,0 L31.4361224,0 Z" id="Shape"></path>
                        </g>
                    </g>
                </g>
            </g>
        </g>
    </g>
</svg>